<?xml version="1.0" encoding="UTF-8" standalone="no"?>
<svg
   width="138.23914"
   height="145.1064"
   viewBox="0 0 138.23914 145.1064"
   version="1.1"
   id="svg75"
   sodipodi:docname="current.svg"
   inkscape:export-filename="/home/v/Downloads/wimaan-logodark-iter2.png"
   inkscape:export-xdpi="124.25621"
   inkscape:export-ydpi="124.25621"
   inkscape:version="1.1.1 (3bf5ae0d25, 2021-09-20, custom)"
   xmlns:inkscape="http://www.inkscape.org/namespaces/inkscape"
   xmlns:sodipodi="http://sodipodi.sourceforge.net/DTD/sodipodi-0.dtd"
   xmlns:xlink="http://www.w3.org/1999/xlink"
   xmlns="http://www.w3.org/2000/svg"
   xmlns:svg="http://www.w3.org/2000/svg">
  <sodipodi:namedview
     id="namedview77"
     pagecolor="#ffffff"
     bordercolor="#666666"
     borderopacity="1.0"
     inkscape:pageshadow="2"
     inkscape:pageopacity="0.0"
     inkscape:pagecheckerboard="0"
     showgrid="false"
     inkscape:zoom="2.1466667"
     inkscape:cx="69.409937"
     inkscape:cy="76.164595"
     inkscape:window-width="1920"
     inkscape:window-height="998"
     inkscape:window-x="0"
     inkscape:window-y="45"
     inkscape:window-maximized="1"
     inkscape:current-layer="layer1" />
  <defs
     id="defs11">
    <linearGradient
       id="gradient"
       gradientUnits="userSpaceOnUse"
       x1="24"
       x2="246"
       y1="238"
       y2="16">
      <stop
         offset="0%"
         stop-color="#0a00b2"
         id="stop2" />
      <stop
         offset="50%"
         stop-color="#ff0000"
         id="stop4" />
      <stop
         offset="100%"
         stop-color="#fffc00"
         id="stop6" />
    </linearGradient>
    <style
       id="style9">
			.wordmark {
				fill: #000000;
			}
			.petal {
				opacity: 0.65;
			}
			.petals {
				fill: url(#gradient);
			}
		</style>
    <linearGradient
       inkscape:collect="always"
       xlink:href="#gradient"
       id="linearGradient944"
       gradientUnits="userSpaceOnUse"
       x1="24"
       y1="238"
       x2="246"
       y2="16"
       gradientTransform="matrix(0.66310188,-1.0932428,0.74852916,0.96847442,-49.868028,285.55869)" />
    <linearGradient
       inkscape:collect="always"
       xlink:href="#gradient"
       id="linearGradient1502"
       gradientUnits="userSpaceOnUse"
       gradientTransform="matrix(0.34232576,0.25103753,0.38642752,-0.2223874,38.928971,150.32779)"
       x1="24"
       y1="238"
       x2="246"
       y2="16" />
    <linearGradient
       inkscape:collect="always"
       xlink:href="#gradient"
       id="linearGradient1838"
       gradientUnits="userSpaceOnUse"
       gradientTransform="matrix(0.98688644,-0.35305177,-0.05523959,0.99832922,-31.797488,154.04919)"
       x1="24"
       y1="238"
       x2="246"
       y2="16" />
    <linearGradient
       inkscape:collect="always"
       xlink:href="#gradient"
       id="linearGradient1877"
       gradientUnits="userSpaceOnUse"
       gradientTransform="matrix(-0.98688644,-0.35305177,0.05523959,0.99832922,299.85311,154.04919)"
       x1="24"
       y1="238"
       x2="246"
       y2="16" />
  </defs>
  <g
     inkscape:groupmode="layer"
     id="layer1"
     inkscape:label="bg"
     transform="translate(-65.61162,-73.861231)" />
  <g
     inkscape:groupmode="layer"
     id="layer2"
     inkscape:label="fg"
     transform="translate(-65.61162,-73.861231)">
    <path
       class="petal"
       d="m 120.28126,135.39789 c -2.2838,11.61076 -2.57831,23.15538 0.43597,34.55963 a 23.039,33.64895 0 0 0 10.85046,17.58989 5.672,8.2840769 0 0 0 4.85403,-0.27177 c 7.13173,-6.52465 11.42675,-15.80834 12.16511,-28.6089 1.31233,-22.74654 -5.61494,-40.59111 -15.10718,-58.46659 -6.22843,11.21139 -10.67765,22.38138 -13.19839,35.19774 z"
       id="path64"
       style="fill:url(#linearGradient944);stroke-width:1.20852" />
    <path
       class="petal"
       d="m 152.22931,146.13249 c -7.56388,6.19156 -13.87308,13.36204 -18.0793,22.14146 a 18.419426,27.829743 39.931522 0 0 -2.68594,16.72364 4.5347012,6.8514391 39.931522 0 0 3.12008,2.31859 c 7.83587,-0.47818 15.39738,-4.1618 22.64543,-11.90102 12.87994,-13.75243 18.1062,-28.62432 21.77641,-44.83209 -9.77014,3.91403 -18.42755,8.71485 -26.77668,15.54942 z"
       id="path64-2"
       style="opacity:0.65;fill:url(#linearGradient1838);stroke-width:0.98272" />
    <path
       class="petal"
       d="m 115.82631,146.13249 c 7.56388,6.19156 13.87308,13.36204 18.0793,22.14146 a 27.829743,18.419426 50.068478 0 1 2.68594,16.72364 6.8514391,4.5347012 50.068478 0 1 -3.12008,2.31859 c -7.83587,-0.47818 -15.39738,-4.1618 -22.64543,-11.90102 -12.879941,-13.75243 -18.106201,-28.62432 -21.776411,-44.83209 9.77014,3.91403 18.427551,8.71485 26.776681,15.54942 z"
       id="path64-2-7"
       style="opacity:0.65;fill:url(#linearGradient1877);stroke-width:0.98272" />
    <path
       class="petal"
       d="m 126.76839,184.80869 c -1.179,-2.66613 -1.33104,-5.31709 0.22508,-7.9358 a 11.893864,7.7266914 0 0 1 5.60154,-4.03911 2.9281652,1.9022437 0 0 1 2.50589,0.0624 c 3.68174,1.49823 5.89904,3.63001 6.28022,6.56936 0.67749,5.22321 -2.8987,9.3208 -7.79907,13.42548 -3.21541,-2.57443 -5.51232,-5.13936 -6.81366,-8.08233 z"
       id="path64-5"
       style="opacity:0.65;fill:url(#linearGradient1502);stroke-width:0.416097" />
    <ellipse
       style="fill:none;fill-opacity:0.65098;stroke:#ff9500;stroke-width:4.61816;stroke-opacity:0.65"
       id="path1902"
       cx="134.73119"
       cy="146.41443"
       rx="66.810486"
       ry="70.244118" />
  </g>
</svg>
